<?xml version="1.0" encoding="UTF-8"?>
<svg id="OBJECTS" xmlns="http://www.w3.org/2000/svg" xmlns:xlink="http://www.w3.org/1999/xlink" viewBox="0 0 1160 900">
  <defs>
    <style>
      .cls-1 {
        fill: none;
      }

      .cls-2 {
        fill: #a7a5a6;
        filter: url(#drop-shadow-5);
      }

      .cls-3 {
        fill: #1a1718;
        filter: url(#drop-shadow-1);
      }

      .cls-4 {
        fill: #7b7979;
        filter: url(#drop-shadow-4);
      }

      .cls-5 {
        fill: #292828;
        filter: url(#drop-shadow-2);
      }

      .cls-6 {
        fill: #4f4c4d;
        filter: url(#drop-shadow-3);
      }

      .cls-7 {
        fill: #151414;
      }

      .cls-8 {
        clip-path: url(#clippath);
      }
    </style>
    <clipPath id="clippath">
      <rect class="cls-1" x="-290" y="22.3" width="1740" height="1160" transform="translate(-22.3 1182.3) rotate(-90)"/>
    </clipPath>
    <filter id="drop-shadow-1" x="-33.64" y="-302.43" width="1228.56" height="1337.52" filterUnits="userSpaceOnUse">
      <feOffset dx="-5.01" dy="5.01"/>
      <feGaussianBlur result="blur" stdDeviation="6.02"/>
      <feFlood flood-color="#000" flood-opacity=".5"/>
      <feComposite in2="blur" operator="in"/>
      <feComposite in="SourceGraphic"/>
    </filter>
    <filter id="drop-shadow-2" x="-33.64" y="-302.43" width="1228.56" height="1064.4" filterUnits="userSpaceOnUse">
      <feOffset dx="-5.01" dy="5.01"/>
      <feGaussianBlur result="blur-2" stdDeviation="6.02"/>
      <feFlood flood-color="#000" flood-opacity=".5"/>
      <feComposite in2="blur-2" operator="in"/>
      <feComposite in="SourceGraphic"/>
    </filter>
    <filter id="drop-shadow-3" x="-33.64" y="-302.43" width="1228.56" height="909.6" filterUnits="userSpaceOnUse">
      <feOffset dx="-5.01" dy="5.01"/>
      <feGaussianBlur result="blur-3" stdDeviation="6.02"/>
      <feFlood flood-color="#000" flood-opacity=".5"/>
      <feComposite in2="blur-3" operator="in"/>
      <feComposite in="SourceGraphic"/>
    </filter>
    <filter id="drop-shadow-4" x="-33.64" y="-302.43" width="1228.56" height="607.44" filterUnits="userSpaceOnUse">
      <feOffset dx="-5.01" dy="5.01"/>
      <feGaussianBlur result="blur-4" stdDeviation="6.02"/>
      <feFlood flood-color="#000" flood-opacity=".5"/>
      <feComposite in2="blur-4" operator="in"/>
      <feComposite in="SourceGraphic"/>
    </filter>
    <filter id="drop-shadow-5" x="-33.35" y="-302.38" width="1228.08" height="430.8" filterUnits="userSpaceOnUse">
      <feOffset dx="-5" dy="5"/>
      <feGaussianBlur result="blur-5" stdDeviation="6"/>
      <feFlood flood-color="#000" flood-opacity=".5"/>
      <feComposite in2="blur-5" operator="in"/>
      <feComposite in="SourceGraphic"/>
    </filter>
  </defs>
  <rect class="cls-7" x="-288.26" y="81.33" width="1736.52" height="1157.68" transform="translate(-80.17 1240.17) rotate(-90)"/>
  <g class="cls-8">
    <g>
      <path class="cls-3" d="M407.45,809.83c119.66-14.4,222.3,122.43,340.49,98.81,59.74-11.94,105.67-63.19,165.28-75.75,65.93-13.89,131.74,22.52,184.84,64,27.77,21.69,54.78,45.51,83.49,66.01V-289.22s-1191.89,0-1191.89,0V1000.35c52.72,17.82,112.66,15.15,162.28-10.37,94.09-48.39,150.46-167.52,255.51-180.15Z"/>
      <path class="cls-5" d="M983.41,567.59c70.06,10.62,133.4,44.69,198.14,74.38V-289.22s-1191.89,0-1191.89,0v893.97c118.96,106.33,288.76,157.46,445.43,123.49,188.36-40.84,357.76-189.52,548.32-160.65Z"/>
      <path class="cls-6" d="M593.92,535.02c32.48-26.68,55.68-58.58,79.17-90.19,23.49-31.61,47.27-62.93,80.92-88.45,90.47-55.68,192.55,0,278.39,37.12,54.39,24.17,104.52,26.74,149.15,14.16V-289.22s-1191.89,0-1191.89,0V265.79c61.53,3.02,121.19,13.2,163.46,62.76,74.24,92.8,129.92,213.44,247.11,245.49,32.37,9.56,66.05,12.53,98.99,6.77,32.94-5.76,65.13-20.26,94.71-45.78Z"/>
      <path class="cls-4" d="M739.44,216.34c25.05,33.55,64.55,67.59,114.23,65.27,72.22-3.37,106.24-78.44,176.18-92.87,51.77-10.68,100.92,15.13,151.69,31.83v-509.78s-1191.89,0-1191.89,0V152.41c2.82,3.17,5.69,6.33,8.67,9.43,68.13,70.97,191.07,118.11,297.61,87.19,63.7-18.49,110.4-60.49,164.29-92.79,53.89-32.3,128.8-55.56,188.6-30.36,43.79,18.45,65.55,56.92,90.61,90.47Z"/>
      <path class="cls-2" d="M492.48,19.12c34.05-36.74,78.48-73.72,128.01-66.27,74.66,11.24,104.76,113.08,177.38,133.78,78.23,22.3,152.25-61.42,233.3-54.53,54.52,4.63,101.01,49.46,150.38,69.54v-390.86s-1191.89,0-1191.89,0V43.69c71.53-28.12,154.57-27.75,224.65,4.29,51.85,23.7,101.9,64.1,158.39,56.43,49.63-6.74,85.73-48.55,119.78-85.29Z"/>
    </g>
  </g>
</svg>