<?xml version="1.0" encoding="UTF-8"?>
<svg id="Layer_1" xmlns="http://www.w3.org/2000/svg" version="1.1" viewBox="0 0 800 800">
  <!-- Generator: Adobe Illustrator 29.8.0, SVG Export Plug-In . SVG Version: 2.1.1 Build 160)  -->
  <defs>
    <style>
      .st0 {
        fill: #b5b5b5;
      }

      .st1 {
        fill: #fff;
      }
    </style>
  </defs>
  <path class="st1" d="M702.5,276.2l-81.2,81.2c-3.8,3.8-10,3.8-12.5,0l-166.2-166.2c-3.8-3.8-3.8-10,0-12.5l81.2-81.2-72.5-72.5L25,451.2l72.5,72.5,78.8-78.8c3.8-3.8,10-3.8,12.5,0l165,165c3.8,3.8,3.8,10,0,12.5l-78.8,78.8,72.5,72.5,427.5-425-72.5-72.5ZM426.2,85l25-25c3.8-3.8,8.8-3.8,11.2,0l25,25c3.8,3.8,3.8,8.8,0,11.2l-25,25c-3.8,3.8-8.8,3.8-11.2,0l-25-25c-3.8-3.8-3.8-8.8,0-11.2ZM352.5,157.5l25-25c3.8-3.8,8.8-3.8,11.2,0l25,25c3.8,3.8,3.8,8.8,0,11.2l-25,25c-3.8,3.8-8.8,3.8-11.2,0l-25-25c-3.8-3.8-3.8-8.8,0-11.2ZM280,231.2l25-25c3.8-3.8,8.8-3.8,11.2,0l25,25c3.8,3.8,3.8,8.8,0,11.2l-25,25c-3.8,3.8-8.8,3.8-11.2,0l-25-25c-3.8-3.8-3.8-8.8,0-11.2ZM120,462.5l-25,25c-3.8,3.8-8.8,3.8-11.2,0l-25-25c-3.8-3.8-3.8-8.8,0-11.2l25-25c3.8-3.8,8.8-3.8,11.2,0l25,25c3.8,3.8,3.8,8.8,0,11.2ZM193.8,388.7l-25,25c-3.8,3.8-8.8,3.8-11.2,0l-25-25c-3.8-3.8-3.8-8.8,0-11.2l25-25c3.8-3.8,8.8-3.8,11.2,0l25,25c3.8,3.8,3.8,8.8,0,11.2ZM206.2,305l25-25c3.8-3.8,8.8-3.8,11.2,0l25,25c3.8,3.8,3.8,8.8,0,11.2l-25,25c-3.8,3.8-8.8,3.8-11.2,0l-25-25c-3.8-3.8-3.8-8.8,0-11.2ZM228.8,406.2c-3.8-3.8-3.8-10,0-12.5l165-165c3.8-3.8,10-3.8,12.5,0l165,165c3.8,3.8,3.8,10,0,12.5l-165,165c-3.8,3.8-10,3.8-12.5,0l-165-165ZM372.5,715l-25,25c-3.8,3.8-8.8,3.8-11.2,0l-25-25c-3.8-3.8-3.8-8.8,0-11.2l25-25c3.8-3.8,8.8-3.8,11.2,0l25,25c3.8,3.8,3.8,8.8,0,11.2ZM446.2,641.2l-25,25c-3.8,3.8-8.8,3.8-11.2,0l-25-25c-3.8-3.8-3.8-8.8,0-11.2l25-25c3.8-3.8,8.8-3.8,11.2,0l25,25c3.8,3.8,3.8,8.8,0,11.2ZM520,567.5l-25,25c-3.8,3.8-8.8,3.8-11.2,0l-25-25c-3.8-3.8-3.8-8.8,0-11.2l25-25c3.8-3.8,8.8-3.8,11.2,0l25,25c3.8,3.8,3.8,8.8,0,11.2ZM592.5,493.7l-25,25c-3.8,3.8-8.8,3.8-11.2,0l-25-25c-3.8-3.8-3.8-8.8,0-11.2l25-25c3.8-3.8,8.8-3.8,11.2,0l25,25c3.8,3.8,3.8,8.8,0,11.2ZM666.2,421.2l-25,25c-3.8,3.8-8.8,3.8-11.2,0l-25-25c-3.8-3.8-3.8-8.8,0-11.2l25-25c3.8-3.8,8.8-3.8,11.2,0l25,25c3.8,3.8,3.8,8.8,0,11.2ZM740,348.7l-25,25c-3.8,3.8-8.8,3.8-11.2,0l-25-25c-3.8-3.8-3.8-8.8,0-11.2l25-25c3.8-3.8,8.8-3.8,11.2,0l25,25c3.8,3.8,3.8,8.8,0,11.2Z"/>
  <path class="st0" d="M120,451.2c3.8,3.8,3.8,8.8,0,11.2l-25,25c-3.8,3.8-8.8,3.8-11.2,0l-25-25c-3.8-3.8-3.8-8.8,0-11.2l25-25c3.8-3.8,8.8-3.8,11.2,0l25,25Z"/>
  <path class="st0" d="M193.8,377.5c3.8,3.8,3.8,8.8,0,11.2l-25,25c-3.8,3.8-8.8,3.8-11.2,0l-25-25c-3.8-3.8-3.8-8.8,0-11.2l25-25c3.8-3.8,8.8-3.8,11.2,0l25,25Z"/>
  <path class="st0" d="M231.2,341.2l-25-25c-3.8-3.8-3.8-8.8,0-11.2l25-25c3.8-3.8,8.8-3.8,11.2,0l25,25c3.8,3.8,3.8,8.8,0,11.2l-25,25c-3.8,3.8-8.8,3.8-11.2,0Z"/>
  <path class="st0" d="M280,242.5c-3.8-3.8-3.8-8.8,0-11.2l25-25c3.8-3.8,8.8-3.8,11.2,0l25,25c3.8,3.8,3.8,8.8,0,11.2l-25,25c-3.8,3.8-8.8,3.8-11.2,0l-25-25Z"/>
  <path class="st0" d="M372.5,703.7c3.8,3.8,3.8,8.8,0,11.2l-25,25c-3.8,3.8-8.8,3.8-11.2,0l-25-25c-3.8-3.8-3.8-8.8,0-11.2l25-25c3.8-3.8,8.8-3.8,11.2,0l25,25Z"/>
  <path class="st0" d="M352.5,168.7c-3.8-3.8-3.8-8.8,0-11.2l25-25c3.8-3.8,8.8-3.8,11.2,0l25,25c3.8,3.8,3.8,8.8,0,11.2l-25,25c-3.8,3.8-8.8,3.8-11.2,0l-25-25Z"/>
  <path class="st0" d="M446.2,630c3.8,3.8,3.8,8.8,0,11.2l-25,25c-3.8,3.8-8.8,3.8-11.2,0l-25-25c-3.8-3.8-3.8-8.8,0-11.2l25-25c3.8-3.8,8.8-3.8,11.2,0l25,25Z"/>
  <path class="st0" d="M426.2,96.2c-3.8-3.8-3.8-8.8,0-11.2l25-25c3.8-3.8,8.8-3.8,11.2,0l25,25c3.8,3.8,3.8,8.8,0,11.2l-25,25c-3.8,3.8-8.8,3.8-11.2,0l-25-25Z"/>
  <path class="st0" d="M520,556.2c3.8,3.8,3.8,8.8,0,11.2l-25,25c-3.8,3.8-8.8,3.8-11.2,0l-25-25c-3.8-3.8-3.8-8.8,0-11.2l25-25c3.8-3.8,8.8-3.8,11.2,0l25,25Z"/>
  <path class="st0" d="M393.8,571.2l-165-165c-3.8-3.8-3.8-10,0-12.5l165-165c3.8-3.8,10-3.8,12.5,0l165,165c3.8,3.8,3.8,10,0,12.5l-165,165c-3.8,3.8-10,3.8-12.5,0Z"/>
  <path class="st0" d="M592.5,482.5c3.8,3.8,3.8,8.8,0,11.2l-25,25c-3.8,3.8-8.8,3.8-11.2,0l-25-25c-3.8-3.8-3.8-8.8,0-11.2l25-25c3.8-3.8,8.8-3.8,11.2,0l25,25Z"/>
  <path class="st0" d="M666.2,410c3.8,3.8,3.8,8.8,0,11.2l-25,25c-3.8,3.8-8.8,3.8-11.2,0l-25-25c-3.8-3.8-3.8-8.8,0-11.2l25-25c3.8-3.8,8.8-3.8,11.2,0l25,25Z"/>
  <path class="st0" d="M740,348.7l-25,25c-3.8,3.8-8.8,3.8-11.2,0l-25-25c-3.8-3.8-3.8-8.8,0-11.2l25-25c3.8-3.8,8.8-3.8,11.2,0l25,25c3.8,3.8,3.8,8.8,0,11.2Z"/>
  <path class="st0" d="M740,348.7l-25,25c-3.8,3.8-8.8,3.8-11.2,0l-25-25c-3.8-3.8-3.8-8.8,0-11.2l25-25c3.8-3.8,8.8-3.8,11.2,0l25,25c3.8,3.8,3.8,8.8,0,11.2Z"/>
  <path class="st0" d="M487.5,96.2l-25,25c-3.8,3.8-8.8,3.8-11.2,0l-25-25c-3.8-3.8-3.8-8.8,0-11.2l25-25c3.8-3.8,8.8-3.8,11.2,0l25,25c3.8,3.8,3.8,8.8,0,11.2Z"/>
  <path class="st0" d="M120,462.5l-25,25c-3.8,3.8-8.8,3.8-11.2,0l-25-25c-3.8-3.8-3.8-8.8,0-11.2l25-25c3.8-3.8,8.8-3.8,11.2,0l25,25c3.8,3.8,3.8,8.8,0,11.2Z"/>
  <path class="st0" d="M520,567.5l-25,25c-3.8,3.8-8.8,3.8-11.2,0l-25-25c-3.8-3.8-3.8-8.8,0-11.2l25-25c3.8-3.8,8.8-3.8,11.2,0l25,25c3.8,3.8,3.8,8.8,0,11.2Z"/>
  <path class="st0" d="M592.5,493.7l-25,25c-3.8,3.8-8.8,3.8-11.2,0l-25-25c-3.8-3.8-3.8-8.8,0-11.2l25-25c3.8-3.8,8.8-3.8,11.2,0l25,25c3.8,3.8,3.8,8.8,0,11.2Z"/>
  <path class="st0" d="M413.8,168.7l-25,25c-3.8,3.8-8.8,3.8-11.2,0l-25-25c-3.8-3.8-3.8-8.8,0-11.2l25-25c3.8-3.8,8.8-3.8,11.2,0l25,25c3.8,3.8,3.8,8.8,0,11.2Z"/>
  <path class="st0" d="M666.2,421.2l-25,25c-3.8,3.8-8.8,3.8-11.2,0l-25-25c-3.8-3.8-3.8-8.8,0-11.2l25-25c3.8-3.8,8.8-3.8,11.2,0l25,25c3.8,3.8,3.8,8.8,0,11.2Z"/>
  <path class="st0" d="M341.2,242.5l-25,25c-3.8,3.8-8.8,3.8-11.2,0l-25-25c-3.8-3.8-3.8-8.8,0-11.2l25-25c3.8-3.8,8.8-3.8,11.2,0l25,25c3.8,3.8,3.8,8.8,0,11.2Z"/>
  <path class="st0" d="M267.5,316.2l-25,25c-3.8,3.8-8.8,3.8-11.2,0l-25-25c-3.8-3.8-3.8-8.8,0-11.2l25-25c3.8-3.8,8.8-3.8,11.2,0l25,25c3.8,3.8,3.8,8.8,0,11.2Z"/>
  <path class="st0" d="M571.2,406.2l-165,165c-3.8,3.8-10,3.8-12.5,0l-165-165c-3.8-3.8-3.8-10,0-12.5l165-165c3.8-3.8,10-3.8,12.5,0l165,165c3.8,3.8,3.8,10,0,12.5Z"/>
  <path class="st0" d="M193.8,388.7l-25,25c-3.8,3.8-8.8,3.8-11.2,0l-25-25c-3.8-3.8-3.8-8.8,0-11.2l25-25c3.8-3.8,8.8-3.8,11.2,0l25,25c3.8,3.8,3.8,8.8,0,11.2Z"/>
  <path class="st0" d="M446.2,641.2l-25,25c-3.8,3.8-8.8,3.8-11.2,0l-25-25c-3.8-3.8-3.8-8.8,0-11.2l25-25c3.8-3.8,8.8-3.8,11.2,0l25,25c3.8,3.8,3.8,8.8,0,11.2Z"/>
  <path class="st0" d="M372.5,715l-25,25c-3.8,3.8-8.8,3.8-11.2,0l-25-25c-3.8-3.8-3.8-8.8,0-11.2l25-25c3.8-3.8,8.8-3.8,11.2,0l25,25c3.8,3.8,3.8,8.8,0,11.2Z"/>
</svg>