<?xml version="1.0" encoding="UTF-8"?>
<svg xmlns="http://www.w3.org/2000/svg" xmlns:xlink="http://www.w3.org/1999/xlink" viewBox="0 0 500 546.12">
  <defs>
    <style>
      .cls-1 {
        fill: none;
      }

      .cls-2 {
        fill: #262626;
      }

      .cls-3 {
        filter: url(#drop-shadow-1);
      }

      .cls-4 {
        filter: url(#drop-shadow-3);
      }

      .cls-5 {
        filter: url(#drop-shadow-2);
      }

      .cls-6 {
        filter: url(#drop-shadow-9);
      }

      .cls-7 {
        filter: url(#drop-shadow-6);
      }

      .cls-8 {
        filter: url(#drop-shadow-7);
      }

      .cls-9 {
        filter: url(#drop-shadow-8);
      }

      .cls-10 {
        filter: url(#drop-shadow-5);
      }

      .cls-11 {
        filter: url(#drop-shadow-4);
      }

      .cls-12 {
        fill: #0a0a0a;
      }

      .cls-13 {
        mix-blend-mode: multiply;
      }

      .cls-13, .cls-14, .cls-15 {
        opacity: .2;
      }

      .cls-16 {
        fill: #1e1e1e;
      }

      .cls-14, .cls-15 {
        mix-blend-mode: overlay;
      }

      .cls-14, .cls-17 {
        fill: #fbfbfb;
      }

      .cls-18 {
        isolation: isolate;
      }

      .cls-19 {
        filter: url(#drop-shadow-22);
      }

      .cls-20 {
        filter: url(#drop-shadow-20);
      }

      .cls-21 {
        filter: url(#drop-shadow-21);
      }

      .cls-22 {
        filter: url(#drop-shadow-27);
      }

      .cls-23 {
        filter: url(#drop-shadow-26);
      }

      .cls-24 {
        filter: url(#drop-shadow-25);
      }

      .cls-25 {
        filter: url(#drop-shadow-24);
      }

      .cls-26 {
        filter: url(#drop-shadow-23);
      }

      .cls-27 {
        filter: url(#drop-shadow-13);
      }

      .cls-28 {
        filter: url(#drop-shadow-16);
      }

      .cls-29 {
        filter: url(#drop-shadow-19);
      }

      .cls-30 {
        filter: url(#drop-shadow-14);
      }

      .cls-31 {
        filter: url(#drop-shadow-18);
      }

      .cls-32 {
        filter: url(#drop-shadow-17);
      }

      .cls-33 {
        filter: url(#drop-shadow-12);
      }

      .cls-34 {
        filter: url(#drop-shadow-11);
      }

      .cls-35 {
        filter: url(#drop-shadow-10);
      }

      .cls-36 {
        filter: url(#drop-shadow-15);
      }

      .cls-37 {
        clip-path: url(#clippath-1);
      }

      .cls-38 {
        clip-path: url(#clippath-2);
      }

      .cls-39 {
        opacity: .79;
      }

      .cls-40 {
        opacity: .68;
      }

      .cls-41 {
        opacity: .93;
      }

      .cls-42 {
        clip-path: url(#clippath);
      }
    </style>
    <clipPath id="clippath">
      <rect class="cls-1" x="-125" y="125" width="750" height="500" transform="translate(625 125) rotate(90)"/>
    </clipPath>
    <clipPath id="clippath-1">
      <rect class="cls-1" x="-48.22" y="48.22" width="546.12" height="449.67" transform="translate(497.9 48.22) rotate(90)"/>
    </clipPath>
    <filter id="drop-shadow-1" x="-233.28" y="345.08" width="495.84" height="447.12" filterUnits="userSpaceOnUse">
      <feOffset dx="-7" dy="8"/>
      <feGaussianBlur result="blur" stdDeviation="10"/>
      <feFlood flood-color="#000" flood-opacity=".59"/>
      <feComposite in2="blur" operator="in"/>
      <feComposite in="SourceGraphic"/>
    </filter>
    <filter id="drop-shadow-2" x="-111.84" y="202.04" width="156" height="142.08" filterUnits="userSpaceOnUse">
      <feOffset dx="-3.64" dy="4.16"/>
      <feGaussianBlur result="blur-2" stdDeviation="5.2"/>
      <feFlood flood-color="#000" flood-opacity=".59"/>
      <feComposite in2="blur-2" operator="in"/>
      <feComposite in="SourceGraphic"/>
    </filter>
    <filter id="drop-shadow-3" x="115.32" y="351.2" width="180.72" height="165.12" filterUnits="userSpaceOnUse">
      <feOffset dx="-3" dy="5"/>
      <feGaussianBlur result="blur-3" stdDeviation="7"/>
      <feFlood flood-color="#000" flood-opacity=".3"/>
      <feComposite in2="blur-3" operator="in"/>
      <feComposite in="SourceGraphic"/>
    </filter>
    <filter id="drop-shadow-4" x="-67.8" y="249.2" width="180.72" height="165.12" filterUnits="userSpaceOnUse">
      <feOffset dx="-3" dy="5"/>
      <feGaussianBlur result="blur-4" stdDeviation="7"/>
      <feFlood flood-color="#000" flood-opacity=".3"/>
      <feComposite in2="blur-4" operator="in"/>
      <feComposite in="SourceGraphic"/>
    </filter>
    <filter id="drop-shadow-5" x="-86.28" y="434.96" width="180.72" height="165.36" filterUnits="userSpaceOnUse">
      <feOffset dx="-3" dy="5"/>
      <feGaussianBlur result="blur-5" stdDeviation="7"/>
      <feFlood flood-color="#000" flood-opacity=".3"/>
      <feComposite in2="blur-5" operator="in"/>
      <feComposite in="SourceGraphic"/>
    </filter>
    <filter id="drop-shadow-6" x="288.6" y="508.16" width="180.72" height="165.36" filterUnits="userSpaceOnUse">
      <feOffset dx="-3" dy="5"/>
      <feGaussianBlur result="blur-6" stdDeviation="7"/>
      <feFlood flood-color="#000" flood-opacity=".3"/>
      <feComposite in2="blur-6" operator="in"/>
      <feComposite in="SourceGraphic"/>
    </filter>
    <filter id="drop-shadow-7" x="125.76" y="264.44" width="100.32" height="92.4" filterUnits="userSpaceOnUse">
      <feOffset dx="-2.02" dy="3.37"/>
      <feGaussianBlur result="blur-7" stdDeviation="4.72"/>
      <feFlood flood-color="#000" flood-opacity=".3"/>
      <feComposite in2="blur-7" operator="in"/>
      <feComposite in="SourceGraphic"/>
    </filter>
    <filter id="drop-shadow-8" x="231.36" y="494.12" width="100.32" height="92.4" filterUnits="userSpaceOnUse">
      <feOffset dx="-2.02" dy="3.37"/>
      <feGaussianBlur result="blur-8" stdDeviation="4.72"/>
      <feFlood flood-color="#000" flood-opacity=".3"/>
      <feComposite in2="blur-8" operator="in"/>
      <feComposite in="SourceGraphic"/>
    </filter>
    <filter id="drop-shadow-9" x="-54.96" y="103.64" width="100.32" height="92.16" filterUnits="userSpaceOnUse">
      <feOffset dx="-2.02" dy="3.37"/>
      <feGaussianBlur result="blur-9" stdDeviation="4.72"/>
      <feFlood flood-color="#000" flood-opacity=".3"/>
      <feComposite in2="blur-9" operator="in"/>
      <feComposite in="SourceGraphic"/>
    </filter>
    <filter id="drop-shadow-10" x="10.87" y="169.71" width="71.04" height="65.52" filterUnits="userSpaceOnUse">
      <feOffset dx="-1.43" dy="2.38"/>
      <feGaussianBlur result="blur-10" stdDeviation="3.34"/>
      <feFlood flood-color="#000" flood-opacity=".3"/>
      <feComposite in2="blur-10" operator="in"/>
      <feComposite in="SourceGraphic"/>
    </filter>
    <filter id="drop-shadow-11" x="170.85" y="259.61" width="42.96" height="39.6" filterUnits="userSpaceOnUse">
      <feOffset dx="-.86" dy="1.44"/>
      <feGaussianBlur result="blur-11" stdDeviation="2.01"/>
      <feFlood flood-color="#000" flood-opacity=".3"/>
      <feComposite in2="blur-11" operator="in"/>
      <feComposite in="SourceGraphic"/>
    </filter>
    <filter id="drop-shadow-12" x="-15.87" y="8.57" width="42.96" height="39.6" filterUnits="userSpaceOnUse">
      <feOffset dx="-.86" dy="1.44"/>
      <feGaussianBlur result="blur-12" stdDeviation="2.01"/>
      <feFlood flood-color="#000" flood-opacity=".3"/>
      <feComposite in2="blur-12" operator="in"/>
      <feComposite in="SourceGraphic"/>
    </filter>
    <filter id="drop-shadow-13" x="18.21" y="392.57" width="42.96" height="39.6" filterUnits="userSpaceOnUse">
      <feOffset dx="-.86" dy="1.44"/>
      <feGaussianBlur result="blur-13" stdDeviation="2.01"/>
      <feFlood flood-color="#000" flood-opacity=".3"/>
      <feComposite in2="blur-13" operator="in"/>
      <feComposite in="SourceGraphic"/>
    </filter>
    <clipPath id="clippath-2">
      <rect class="cls-1" x="76.71" y="-2.37" width="420.91" height="425.66" transform="translate(497.63 -76.71) rotate(90)"/>
    </clipPath>
    <filter id="drop-shadow-14" x="347.16" y="-138.4" width="414" height="375.12" filterUnits="userSpaceOnUse">
      <feOffset dx="-3" dy="5"/>
      <feGaussianBlur result="blur-14" stdDeviation="7"/>
      <feFlood flood-color="#000" flood-opacity=".3"/>
      <feComposite in2="blur-14" operator="in"/>
      <feComposite in="SourceGraphic"/>
    </filter>
    <filter id="drop-shadow-15" x="88.08" y="-162.76" width="300" height="273.12" filterUnits="userSpaceOnUse">
      <feOffset dx="-7" dy="8"/>
      <feGaussianBlur result="blur-15" stdDeviation="10"/>
      <feFlood flood-color="#000" flood-opacity=".59"/>
      <feComposite in2="blur-15" operator="in"/>
      <feComposite in="SourceGraphic"/>
    </filter>
    <filter id="drop-shadow-16" x="230.52" y="-107.2" width="180.72" height="165.36" filterUnits="userSpaceOnUse">
      <feOffset dx="-3" dy="5"/>
      <feGaussianBlur result="blur-16" stdDeviation="7"/>
      <feFlood flood-color="#000" flood-opacity=".3"/>
      <feComposite in2="blur-16" operator="in"/>
      <feComposite in="SourceGraphic"/>
    </filter>
    <filter id="drop-shadow-17" x="387" y="115.76" width="180.72" height="165.36" filterUnits="userSpaceOnUse">
      <feOffset dx="-3" dy="5"/>
      <feGaussianBlur result="blur-17" stdDeviation="7"/>
      <feFlood flood-color="#000" flood-opacity=".3"/>
      <feComposite in2="blur-17" operator="in"/>
      <feComposite in="SourceGraphic"/>
    </filter>
    <filter id="drop-shadow-18" x="449.76" y="92.12" width="100.08" height="92.4" filterUnits="userSpaceOnUse">
      <feOffset dx="-2.02" dy="3.37"/>
      <feGaussianBlur result="blur-18" stdDeviation="4.72"/>
      <feFlood flood-color="#000" flood-opacity=".3"/>
      <feComposite in2="blur-18" operator="in"/>
      <feComposite in="SourceGraphic"/>
    </filter>
    <filter id="drop-shadow-19" x="216.24" y="90.92" width="100.32" height="92.4" filterUnits="userSpaceOnUse">
      <feOffset dx="-2.02" dy="3.37"/>
      <feGaussianBlur result="blur-19" stdDeviation="4.72"/>
      <feFlood flood-color="#000" flood-opacity=".3"/>
      <feComposite in2="blur-19" operator="in"/>
      <feComposite in="SourceGraphic"/>
    </filter>
    <filter id="drop-shadow-20" x="292.8" y="71.48" width="100.08" height="92.16" filterUnits="userSpaceOnUse">
      <feOffset dx="-2.02" dy="3.37"/>
      <feGaussianBlur result="blur-20" stdDeviation="4.72"/>
      <feFlood flood-color="#000" flood-opacity=".3"/>
      <feComposite in2="blur-20" operator="in"/>
      <feComposite in="SourceGraphic"/>
    </filter>
    <filter id="drop-shadow-21" x="425.52" y="-33.16" width="100.32" height="92.4" filterUnits="userSpaceOnUse">
      <feOffset dx="-2.02" dy="3.37"/>
      <feGaussianBlur result="blur-21" stdDeviation="4.72"/>
      <feFlood flood-color="#000" flood-opacity=".3"/>
      <feComposite in2="blur-21" operator="in"/>
      <feComposite in="SourceGraphic"/>
    </filter>
    <filter id="drop-shadow-22" x="464.88" y="305.48" width="100.32" height="92.4" filterUnits="userSpaceOnUse">
      <feOffset dx="-2.02" dy="3.37"/>
      <feGaussianBlur result="blur-22" stdDeviation="4.72"/>
      <feFlood flood-color="#000" flood-opacity=".3"/>
      <feComposite in2="blur-22" operator="in"/>
      <feComposite in="SourceGraphic"/>
    </filter>
    <filter id="drop-shadow-23" x="92.71" y="-29.01" width="71.04" height="65.52" filterUnits="userSpaceOnUse">
      <feOffset dx="-1.43" dy="2.38"/>
      <feGaussianBlur result="blur-23" stdDeviation="3.34"/>
      <feFlood flood-color="#000" flood-opacity=".3"/>
      <feComposite in2="blur-23" operator="in"/>
      <feComposite in="SourceGraphic"/>
    </filter>
    <filter id="drop-shadow-24" x="223.41" y="19.61" width="42.96" height="39.6" filterUnits="userSpaceOnUse">
      <feOffset dx="-.86" dy="1.44"/>
      <feGaussianBlur result="blur-24" stdDeviation="2.01"/>
      <feFlood flood-color="#000" flood-opacity=".3"/>
      <feComposite in2="blur-24" operator="in"/>
      <feComposite in="SourceGraphic"/>
    </filter>
    <filter id="drop-shadow-25" x="453.57" y="370.25" width="42.96" height="39.6" filterUnits="userSpaceOnUse">
      <feOffset dx="-.86" dy="1.44"/>
      <feGaussianBlur result="blur-25" stdDeviation="2.01"/>
      <feFlood flood-color="#000" flood-opacity=".3"/>
      <feComposite in2="blur-25" operator="in"/>
      <feComposite in="SourceGraphic"/>
    </filter>
    <filter id="drop-shadow-26" x="411.81" y="209.69" width="42.96" height="39.6" filterUnits="userSpaceOnUse">
      <feOffset dx="-.86" dy="1.44"/>
      <feGaussianBlur result="blur-26" stdDeviation="2.01"/>
      <feFlood flood-color="#000" flood-opacity=".3"/>
      <feComposite in2="blur-26" operator="in"/>
      <feComposite in="SourceGraphic"/>
    </filter>
    <filter id="drop-shadow-27" x="120.69" y="45.77" width="43.2" height="39.6" filterUnits="userSpaceOnUse">
      <feOffset dx="-.86" dy="1.44"/>
      <feGaussianBlur result="blur-27" stdDeviation="2.01"/>
      <feFlood flood-color="#000" flood-opacity=".3"/>
      <feComposite in2="blur-27" operator="in"/>
      <feComposite in="SourceGraphic"/>
    </filter>
  </defs>
  <g class="cls-18">
    <g id="BACKGROUND" class="cls-41">
      <rect x="-125" y="125" width="750" height="500" transform="translate(625 125) rotate(90)"/>
    </g>
    <g id="OBJECTS">
      <g class="cls-42">
        <g class="cls-13">
          <path class="cls-12" d="M162.19,89.61c0-1.94.5-3.87,1.5-5.6l23.77-41.17c1.99-3.45,5.71-5.6,9.7-5.6h47.54c3.99,0,7.7,2.15,9.7,5.6l23.77,41.17c1.99,3.45,1.99,7.75,0,11.2l-23.77,41.17c-1.99,3.45-5.71,5.6-9.7,5.6h-47.54c-3.99,0-7.71-2.15-9.7-5.6l-23.77-41.17c-1-1.73-1.5-3.66-1.5-5.6ZM276.51,89.61c0-1.39-.36-2.78-1.07-4.02l-23.77-41.17c-1.43-2.48-4.1-4.02-6.97-4.02h-47.54c-2.86,0-5.53,1.54-6.97,4.02l-23.77,41.17c-1.43,2.48-1.43,5.56,0,8.04l23.77,41.17c1.43,2.48,4.1,4.02,6.97,4.02h47.54c2.86,0,5.53-1.54,6.97-4.02l23.77-41.17c.72-1.24,1.07-2.63,1.07-4.02Z"/>
          <path class="cls-12" d="M-5.25-37.61c0-1.94.5-3.87,1.5-5.6l23.77-41.17c1.99-3.45,5.71-5.6,9.7-5.6h47.54c3.99,0,7.7,2.15,9.7,5.6l23.77,41.17c1.99,3.45,1.99,7.75,0,11.2l-23.77,41.17c-1.99,3.45-5.71,5.6-9.7,5.6H29.71c-3.99,0-7.71-2.15-9.7-5.6L-3.76-32.01c-1-1.73-1.5-3.66-1.5-5.6ZM109.07-37.61c0-1.39-.36-2.78-1.07-4.02l-23.77-41.17c-1.43-2.48-4.1-4.02-6.97-4.02H29.71c-2.86,0-5.53,1.54-6.97,4.02L-1.03-41.63c-1.43,2.48-1.43,5.56,0,8.04L22.75,7.59c1.43,2.48,4.1,4.02,6.97,4.02h47.54c2.86,0,5.53-1.54,6.97-4.02l23.77-41.17c.72-1.24,1.07-2.63,1.07-4.02Z"/>
          <path class="cls-12" d="M410.17,303.38c0-1.43.37-2.87,1.11-4.15l16.59-28.73c1.48-2.56,4.23-4.15,7.18-4.15h33.17c2.95,0,5.7,1.59,7.18,4.15l16.59,28.73c1.48,2.56,1.48,5.73,0,8.29l-16.59,28.73c-1.48,2.56-4.23,4.15-7.18,4.15h-33.17c-2.95,0-5.7-1.59-7.18-4.15l-16.59-28.73c-.74-1.28-1.11-2.71-1.11-4.15ZM489.93,303.38c0-.89-.23-1.78-.69-2.57l-16.59-28.73c-.91-1.58-2.62-2.57-4.45-2.57h-33.17c-1.83,0-3.53.98-4.45,2.57l-16.59,28.73c-.91,1.58-.91,3.55,0,5.14l16.59,28.73c.91,1.58,2.62,2.57,4.45,2.57h33.17c1.83,0,3.53-.98,4.45-2.57l16.59-28.73c.46-.79.69-1.68.69-2.57Z"/>
          <path class="cls-12" d="M-9.4,565.83c0-3.49.9-6.98,2.7-10.1l45.99-79.65c3.59-6.23,10.3-10.1,17.49-10.1h91.98c7.19,0,13.89,3.87,17.49,10.1l45.99,79.65c3.6,6.23,3.6,13.97,0,20.19l-45.99,79.65c-3.6,6.23-10.3,10.1-17.49,10.1H56.77c-7.19,0-13.89-3.87-17.49-10.1l-45.99-79.65c-1.8-3.11-2.7-6.61-2.7-10.1ZM211.76,565.83c0-2.95-.76-5.89-2.27-8.52l-45.99-79.65c-3.03-5.25-8.69-8.52-14.75-8.52H56.77c-6.07,0-11.72,3.26-14.75,8.52L-3.97,557.31c-3.03,5.25-3.03,11.78,0,17.04l45.99,79.65c3.03,5.25,8.69,8.52,14.75,8.52h91.98c6.07,0,11.72-3.26,14.75-8.52l45.99-79.65c1.52-2.63,2.27-5.57,2.27-8.52Z"/>
          <path class="cls-12" d="M286.45,131.86c0-3.49.9-6.98,2.7-10.1l45.99-79.65c3.6-6.23,10.3-10.1,17.49-10.1h91.98c7.19,0,13.89,3.87,17.49,10.1l45.99,79.65c3.6,6.23,3.6,13.96,0,20.19l-45.99,79.65c-3.59,6.23-10.3,10.1-17.49,10.1h-91.98c-7.19,0-13.89-3.87-17.49-10.1l-45.99-79.65c-1.8-3.11-2.7-6.6-2.7-10.1ZM507.62,131.86c0-2.95-.76-5.89-2.27-8.52l-45.99-79.65c-3.03-5.25-8.69-8.52-14.75-8.52h-91.98c-6.07,0-11.72,3.26-14.75,8.52l-45.99,79.65c-3.03,5.25-3.03,11.78,0,17.04l45.99,79.65c3.03,5.25,8.69,8.52,14.75,8.52h91.98c6.07,0,11.72-3.26,14.75-8.52l45.99-79.65c1.52-2.63,2.27-5.57,2.27-8.52Z"/>
          <path class="cls-12" d="M40.62,425.46h-17.53c-1.27,0-2.44.68-3.07,1.77l-8.77,15.19c-.63,1.1-.63,2.45,0,3.55l8.77,15.19c.63,1.1,1.81,1.77,3.07,1.77h17.53c1.27,0,2.44-.68,3.07-1.77l8.77-15.19c.63-1.1.63-2.45,0-3.55l-8.77-15.19c-.63-1.1-1.81-1.77-3.07-1.77Z"/>
          <path class="cls-12" d="M422.72,168.19h-17.53c-1.27,0-2.44.68-3.07,1.77l-8.77,15.19c-.63,1.1-.63,2.45,0,3.55l8.77,15.19c.63,1.1,1.81,1.77,3.07,1.77h17.53c1.27,0,2.44-.68,3.07-1.77l8.77-15.19c.63-1.1.63-2.45,0-3.55l-8.77-15.19c-.63-1.1-1.81-1.77-3.07-1.77Z"/>
          <path class="cls-12" d="M336.21,138.83h-12.34c-.89,0-1.72.48-2.16,1.25l-6.17,10.68c-.45.77-.45,1.72,0,2.5l6.17,10.68c.45.77,1.27,1.25,2.16,1.25h12.34c.89,0,1.72-.48,2.16-1.25l6.17-10.68c.45-.77.45-1.72,0-2.5l-6.17-10.68c-.45-.77-1.27-1.25-2.16-1.25Z"/>
          <path class="cls-12" d="M411.5,245.68h-12.34c-.89,0-1.72.48-2.16,1.25l-6.17,10.68c-.45.77-.45,1.72,0,2.5l6.17,10.68c.45.77,1.27,1.25,2.16,1.25h12.34c.89,0,1.72-.48,2.16-1.25l6.17-10.68c.45-.77.45-1.72,0-2.5l-6.17-10.68c-.45-.77-1.27-1.25-2.16-1.25Z"/>
          <path class="cls-12" d="M386.21,260.49h-12.34c-.89,0-1.72.48-2.16,1.25l-6.17,10.68c-.45.77-.45,1.72,0,2.5l6.17,10.68c.45.77,1.27,1.25,2.16,1.25h12.34c.89,0,1.72-.48,2.16-1.25l6.17-10.68c.45-.77.45-1.72,0-2.5l-6.17-10.68c-.45-.77-1.27-1.25-2.16-1.25Z"/>
          <path class="cls-12" d="M411.5,275.28h-12.34c-.89,0-1.72.48-2.16,1.25l-6.17,10.68c-.45.77-.45,1.72,0,2.5l6.17,10.68c.45.77,1.27,1.25,2.16,1.25h12.34c.89,0,1.72-.48,2.16-1.25l6.17-10.68c.45-.77.45-1.72,0-2.5l-6.17-10.68c-.45-.77-1.27-1.25-2.16-1.25Z"/>
          <path class="cls-12" d="M251.15,68.25h-9.42c-.68,0-1.31.36-1.65.95l-4.71,8.15c-.34.59-.34,1.32,0,1.91l4.71,8.15c.34.59.97.95,1.65.95h9.42c.68,0,1.31-.36,1.65-.95l4.71-8.15c.34-.59.34-1.32,0-1.91l-4.71-8.15c-.34-.59-.97-.95-1.65-.95Z"/>
          <path class="cls-12" d="M231.84,79.56h-9.42c-.68,0-1.31.36-1.65.95l-4.71,8.15c-.34.59-.34,1.32,0,1.91l4.71,8.15c.34.59.97.95,1.65.95h9.42c.68,0,1.31-.36,1.65-.95l4.71-8.15c.34-.59.34-1.32,0-1.91l-4.71-8.15c-.34-.59-.97-.95-1.65-.95Z"/>
          <path class="cls-12" d="M251.15,90.85h-9.42c-.68,0-1.31.36-1.65.95l-4.71,8.15c-.34.59-.34,1.32,0,1.91l4.71,8.15c.34.59.97.95,1.65.95h9.42c.68,0,1.31-.36,1.65-.95l4.71-8.15c.34-.59.34-1.32,0-1.91l-4.71-8.15c-.34-.59-.97-.95-1.65-.95Z"/>
          <path class="cls-12" d="M97.35,27.38c0-.71.18-1.42.55-2.06l6.28-10.87c.73-1.27,2.1-2.06,3.57-2.06h12.56c1.47,0,2.83.79,3.57,2.06l6.28,10.87c.73,1.27.73,2.85,0,4.12l-6.28,10.87c-.73,1.27-2.1,2.06-3.57,2.06h-12.56c-1.47,0-2.83-.79-3.57-2.06l-6.28-10.87c-.37-.64-.55-1.35-.55-2.06ZM127.55,27.38c0-.17-.04-.33-.13-.48l-6.28-10.87c-.17-.3-.49-.48-.83-.48h-12.56c-.34,0-.66.18-.83.48l-6.28,10.87c-.17.3-.17.67,0,.96l6.28,10.87c.17.3.49.48.83.48h12.56c.34,0,.66-.18.83-.48l6.28-10.87c.09-.15.13-.31.13-.48Z"/>
          <path class="cls-12" d="M502.44,230.67h-26.29c-1.9,0-3.66,1.01-4.61,2.66l-13.15,22.77c-.95,1.65-.95,3.67,0,5.32l13.15,22.77c.95,1.65,2.71,2.66,4.61,2.66h26.29c1.9,0,3.66-1.01,4.61-2.66l13.15-22.77c.95-1.65.95-3.67,0-5.32l-13.15-22.77c-.95-1.65-2.71-2.66-4.61-2.66Z"/>
          <path class="cls-12" d="M106.63,484.4h-34.79c-2.52,0-4.84,1.34-6.1,3.52l-17.39,30.13c-1.26,2.18-1.26,4.86,0,7.04l17.39,30.13c1.26,2.18,3.58,3.52,6.1,3.52h34.79c2.52,0,4.84-1.34,6.1-3.52l17.39-30.13c1.26-2.18,1.26-4.86,0-7.04l-17.39-30.13c-1.26-2.18-3.58-3.52-6.1-3.52Z"/>
          <path class="cls-12" d="M23.75,261.75H-11.04c-2.52,0-4.84,1.34-6.1,3.52l-17.39,30.13c-1.26,2.18-1.26,4.86,0,7.04l17.39,30.13c1.26,2.18,3.58,3.52,6.1,3.52H23.75c2.52,0,4.84-1.34,6.1-3.52l17.39-30.13c1.26-2.18,1.26-4.86,0-7.04l-17.39-30.13c-1.26-2.18-3.58-3.52-6.1-3.52Z"/>
          <path class="cls-12" d="M359.91,192.97h-34.79c-2.52,0-4.84,1.34-6.1,3.52l-17.39,30.13c-1.26,2.18-1.26,4.86,0,7.04l17.39,30.13c1.26,2.18,3.58,3.52,6.1,3.52h34.79c2.52,0,4.84-1.34,6.1-3.52l17.39-30.13c1.26-2.18,1.26-4.86,0-7.04l-17.39-30.13c-1.26-2.18-3.58-3.52-6.1-3.52Z"/>
          <path class="cls-12" d="M495.17,3.37h-34.79c-2.52,0-4.84,1.34-6.1,3.52l-17.39,30.13c-1.26,2.18-1.26,4.86,0,7.04l17.39,30.13c1.26,2.18,3.58,3.52,6.1,3.52h34.79c2.52,0,4.84-1.34,6.1-3.52l17.39-30.13c1.26-2.18,1.26-4.86,0-7.04l-17.39-30.13c-1.26-2.18-3.58-3.52-6.1-3.52Z"/>
          <path class="cls-12" d="M495.17,85.01h-34.79c-2.52,0-4.84,1.34-6.1,3.52l-17.39,30.13c-1.26,2.18-1.26,4.86,0,7.04l17.39,30.13c1.26,2.18,3.58,3.52,6.1,3.52h34.79c2.52,0,4.84-1.34,6.1-3.52l17.39-30.13c1.26-2.18,1.26-4.86,0-7.04l-17.39-30.13c-1.26-2.18-3.58-3.52-6.1-3.52Z"/>
          <path class="cls-12" d="M87.29,413.43h-7.73c-.56,0-1.08.3-1.36.78l-3.87,6.7c-.28.48-.28,1.08,0,1.57l3.87,6.7c.28.48.8.78,1.36.78h7.73c.56,0,1.08-.3,1.36-.78l3.87-6.7c.28-.48.28-1.08,0-1.57l-3.87-6.7c-.28-.48-.8-.78-1.36-.78Z"/>
          <path class="cls-12" d="M133.75,459.15h-7.73c-.56,0-1.08.3-1.36.78l-3.87,6.7c-.28.48-.28,1.08,0,1.57l3.87,6.7c.28.48.8.78,1.36.78h7.73c.56,0,1.08-.3,1.36-.78l3.87-6.7c.28-.48.28-1.08,0-1.57l-3.87-6.7c-.28-.48-.8-.78-1.36-.78Z"/>
          <path class="cls-12" d="M381.77,133.72h-7.73c-.56,0-1.08.3-1.36.78l-3.87,6.7c-.28.48-.28,1.08,0,1.57l3.87,6.7c.28.48.8.78,1.36.78h7.73c.56,0,1.08-.3,1.36-.78l3.87-6.7c.28-.48.28-1.08,0-1.57l-3.87-6.7c-.28-.48-.8-.78-1.36-.78Z"/>
          <path class="cls-12" d="M68.75,393.72h-7.73c-.56,0-1.08.3-1.36.78l-3.87,6.7c-.28.48-.28,1.08,0,1.57l3.87,6.7c.28.48.8.78,1.36.78h7.73c.56,0,1.08-.3,1.36-.78l3.87-6.7c.28-.48.28-1.08,0-1.57l-3.87-6.7c-.28-.48-.8-.78-1.36-.78Z"/>
          <path class="cls-12" d="M179.01,106.93h-7.73c-.56,0-1.08.3-1.36.78l-3.87,6.7c-.28.48-.28,1.08,0,1.57l3.87,6.7c.28.48.8.78,1.36.78h7.73c.56,0,1.08-.3,1.36-.78l3.87-6.7c.28-.48.28-1.08,0-1.57l-3.87-6.7c-.28-.48-.8-.78-1.36-.78Z"/>
          <path class="cls-12" d="M455.5,286.85h-7.73c-.56,0-1.08.3-1.36.78l-3.87,6.7c-.28.48-.28,1.08,0,1.57l3.87,6.7c.28.48.8.78,1.36.78h7.73c.56,0,1.08-.3,1.36-.78l3.87-6.7c.28-.48.28-1.08,0-1.57l-3.87-6.7c-.28-.48-.8-.78-1.36-.78Z"/>
          <path class="cls-12" d="M423.93,47.42h-7.73c-.56,0-1.08.3-1.36.78l-3.87,6.7c-.28.48-.28,1.08,0,1.57l3.87,6.7c.28.48.8.78,1.36.78h7.73c.56,0,1.08-.3,1.36-.78l3.87-6.7c.28-.48.28-1.08,0-1.57l-3.87-6.7c-.28-.48-.8-.78-1.36-.78Z"/>
        </g>
      </g>
      <g class="cls-40">
        <g class="cls-37">
          <g>
            <g class="cls-3">
              <path class="cls-16" d="M112.25,367.2H-68.84c-13.09,0-25.19,6.99-31.74,18.33l-90.55,156.83c-6.55,11.34-6.55,25.31,0,36.65l90.55,156.83c6.55,11.34,18.65,18.33,31.74,18.33H112.25c13.09,0,25.19-6.99,31.74-18.33l90.55-156.83c6.55-11.34,6.55-25.31,0-36.65l-90.55-156.83c-6.55-11.34-18.65-18.33-31.74-18.33Z"/>
              <path class="cls-1" d="M144,735.85l90.55-156.83c6.55-11.34,6.55-25.31,0-36.65l-90.55-156.83c-6.55-11.34-18.65-18.33-31.74-18.33H-68.84c-13.09,0-25.19,6.99-31.74,18.33l-90.55,156.83c-6.55,11.34-6.55,25.31,0,36.65l90.55,156.83c6.55,11.34,18.65,18.33,31.74,18.33H112.25c13.09,0,25.19-6.99,31.74-18.33ZM-68.84,753.17c-12.7,0-24.53-6.83-30.87-17.83l-90.55-156.83c-3.12-5.41-4.78-11.58-4.78-17.83s1.65-12.41,4.78-17.83l90.55-156.83c6.35-11,18.18-17.83,30.87-17.83H112.25c12.7,0,24.53,6.83,30.87,17.83l90.55,156.83c3.12,5.41,4.78,11.58,4.78,17.83s-1.65,12.41-4.78,17.83l-90.55,156.83c-6.35,11-18.18,17.83-30.87,17.83H-68.84Z"/>
            </g>
            <g class="cls-5">
              <path class="cls-16" d="M-4.21,213.53h-51.83c-3.75,0-7.21,2-9.08,5.24l-25.91,44.88c-1.87,3.25-1.87,7.24,0,10.49l25.91,44.88c1.87,3.25,5.34,5.24,9.08,5.24H-4.21c3.75,0,7.21-2,9.08-5.24l25.91-44.88c1.87-3.25,1.87-7.24,0-10.49l-25.91-44.88c-1.87-3.25-5.34-5.24-9.08-5.24Z"/>
              <path class="cls-14" d="M4.87,319.03l25.91-44.88c1.87-3.25,1.87-7.24,0-10.49l-25.91-44.88c-1.87-3.25-5.34-5.24-9.08-5.24h-51.83c-3.75,0-7.21,2-9.08,5.24l-25.91,44.88c-1.87,3.25-1.87,7.24,0,10.49l25.91,44.88c1.87,3.25,5.34,5.24,9.08,5.24H-4.21c3.75,0,7.21-2,9.08-5.24ZM-56.04,323.76c-3.55,0-6.86-1.91-8.63-4.98l-25.91-44.88c-.87-1.51-1.34-3.24-1.34-4.98s.46-3.47,1.34-4.98l25.91-44.88c1.78-3.07,5.08-4.98,8.63-4.98H-4.21c3.55,0,6.86,1.91,8.63,4.98l25.91,44.88c.87,1.51,1.34,3.24,1.34,4.98s-.46,3.47-1.34,4.98l-25.91,44.88c-1.78,3.07-5.08,4.98-8.63,4.98h-51.83Z"/>
            </g>
            <g class="cls-4">
              <path class="cls-2" d="M237.38,367.2h-57.58c-4.16,0-8.01,2.22-10.09,5.83l-28.79,49.86c-2.08,3.61-2.08,8.05,0,11.65l28.79,49.86c2.08,3.61,5.93,5.83,10.09,5.83h57.58c4.16,0,8.01-2.22,10.09-5.83l28.79-49.86c2.08-3.61,2.08-8.05,0-11.65l-28.79-49.86c-2.08-3.61-5.93-5.83-10.09-5.83Z"/>
              <path class="cls-14" d="M247.47,484.41l28.79-49.86c2.08-3.61,2.08-8.05,0-11.65l-28.79-49.86c-2.08-3.61-5.93-5.83-10.09-5.83h-57.58c-4.16,0-8.01,2.22-10.09,5.83l-28.79,49.86c-2.08,3.61-2.08,8.05,0,11.65l28.79,49.86c2.08,3.61,5.93,5.83,10.09,5.83h57.58c4.16,0,8.01-2.22,10.09-5.83ZM179.8,489.24c-3.79,0-7.33-2.04-9.23-5.33l-28.79-49.86c-.93-1.62-1.43-3.46-1.43-5.33s.49-3.71,1.43-5.33l28.79-49.86c1.9-3.29,5.43-5.33,9.23-5.33h57.58c3.79,0,7.33,2.04,9.23,5.33l28.79,49.86c.93,1.62,1.43,3.46,1.43,5.33s-.49,3.71-1.43,5.33l-28.79,49.86c-1.9,3.29-5.43,5.33-9.23,5.33h-57.58Z"/>
            </g>
            <g class="cls-11">
              <path class="cls-2" d="M54.45,265.26H-3.13c-4.16,0-8.01,2.22-10.09,5.83l-28.79,49.86c-2.08,3.61-2.08,8.05,0,11.65l28.79,49.86c2.08,3.61,5.93,5.83,10.09,5.83h57.58c4.16,0,8.01-2.22,10.09-5.83l28.79-49.86c2.08-3.61,2.08-8.05,0-11.65l-28.79-49.86c-2.08-3.61-5.93-5.83-10.09-5.83Z"/>
              <path class="cls-14" d="M64.54,382.47l28.79-49.86c2.08-3.61,2.08-8.05,0-11.65l-28.79-49.86c-2.08-3.61-5.93-5.83-10.09-5.83H-3.13c-4.16,0-8.01,2.22-10.09,5.83l-28.79,49.86c-2.08,3.61-2.08,8.05,0,11.65l28.79,49.86c2.08,3.61,5.93,5.83,10.09,5.83h57.58c4.16,0,8.01-2.22,10.09-5.83ZM-3.13,387.3c-3.79,0-7.33-2.04-9.23-5.33l-28.79-49.86c-.93-1.62-1.43-3.46-1.43-5.33s.49-3.71,1.43-5.33l28.79-49.86c1.9-3.29,5.43-5.33,9.23-5.33h57.58c3.79,0,7.33,2.04,9.23,5.33l28.79,49.86c.93,1.62,1.43,3.46,1.43,5.33s-.49,3.71-1.43,5.33l-28.79,49.86c-1.9,3.29-5.43,5.33-9.23,5.33H-3.13Z"/>
            </g>
            <g class="cls-10">
              <path class="cls-2" d="M35.82,451.17H-21.76c-4.16,0-8.01,2.22-10.09,5.83l-28.79,49.86c-2.08,3.61-2.08,8.05,0,11.65l28.79,49.86c2.08,3.61,5.93,5.83,10.09,5.83h57.58c4.16,0,8.01-2.22,10.09-5.83l28.79-49.86c2.08-3.61,2.08-8.05,0-11.65l-28.79-49.86c-2.08-3.61-5.93-5.83-10.09-5.83Z"/>
              <path class="cls-14" d="M45.91,568.37l28.79-49.86c2.08-3.61,2.08-8.05,0-11.65l-28.79-49.86c-2.08-3.61-5.93-5.83-10.09-5.83H-21.76c-4.16,0-8.01,2.22-10.09,5.83l-28.79,49.86c-2.08,3.61-2.08,8.05,0,11.65l28.79,49.86c2.08,3.61,5.93,5.83,10.09,5.83h57.58c4.16,0,8.01-2.22,10.09-5.83ZM-21.76,573.2c-3.79,0-7.33-2.04-9.23-5.33l-28.79-49.86c-.93-1.62-1.43-3.46-1.43-5.33s.49-3.71,1.43-5.33l28.79-49.86c1.9-3.29,5.43-5.33,9.23-5.33h57.58c3.79,0,7.33,2.04,9.23,5.33l28.79,49.86c.93,1.62,1.43,3.46,1.43,5.33s-.49,3.71-1.43,5.33l-28.79,49.86c-1.9,3.29-5.43,5.33-9.23,5.33H-21.76Z"/>
            </g>
            <g class="cls-7">
              <path class="cls-2" d="M410.69,524.28h-57.58c-4.16,0-8.01,2.22-10.09,5.83l-28.79,49.86c-2.08,3.61-2.08,8.05,0,11.65l28.79,49.86c2.08,3.61,5.93,5.83,10.09,5.83h57.58c4.16,0,8.01-2.22,10.09-5.83l28.79-49.86c2.08-3.61,2.08-8.05,0-11.65l-28.79-49.86c-2.08-3.61-5.93-5.83-10.09-5.83Z"/>
              <path class="cls-14" d="M420.78,641.49l28.79-49.86c2.08-3.61,2.08-8.05,0-11.65l-28.79-49.86c-2.08-3.61-5.93-5.83-10.09-5.83h-57.58c-4.16,0-8.01,2.22-10.09,5.83l-28.79,49.86c-2.08,3.61-2.08,8.05,0,11.65l28.79,49.86c2.08,3.61,5.93,5.83,10.09,5.83h57.58c4.16,0,8.01-2.22,10.09-5.83ZM353.11,646.32c-3.79,0-7.33-2.04-9.23-5.33l-28.79-49.86c-.93-1.62-1.43-3.46-1.43-5.33s.49-3.71,1.43-5.33l28.79-49.86c1.9-3.29,5.43-5.33,9.23-5.33h57.58c3.79,0,7.33,2.04,9.23,5.33l28.79,49.86c.93,1.62,1.43,3.46,1.43,5.33s-.49,3.71-1.43,5.33l-28.79,49.86c-1.9,3.29-5.43,5.33-9.23,5.33h-57.58Z"/>
            </g>
            <g class="cls-8">
              <path class="cls-16" d="M192.82,275.39h-29.81c-2.16,0-4.15,1.15-5.22,3.02l-14.9,25.82c-1.08,1.87-1.08,4.17,0,6.03l14.9,25.82c1.08,1.87,3.07,3.02,5.22,3.02h29.81c2.16,0,4.15-1.15,5.22-3.02l14.9-25.82c1.08-1.87,1.08-4.17,0-6.03l-14.9-25.82c-1.08-1.87-3.07-3.02-5.22-3.02Z"/>
              <path class="cls-14" d="M198.04,336.08l14.9-25.82c1.08-1.87,1.08-4.17,0-6.03l-14.9-25.82c-1.08-1.87-3.07-3.02-5.22-3.02h-29.81c-2.16,0-4.15,1.15-5.22,3.02l-14.9,25.82c-1.08,1.87-1.08,4.17,0,6.03l14.9,25.82c1.08,1.87,3.07,3.02,5.22,3.02h29.81c2.16,0,4.15-1.15,5.22-3.02ZM163.01,338.09c-1.79,0-3.46-.96-4.36-2.52l-14.91-25.82c-.44-.76-.67-1.63-.67-2.52s.23-1.75.67-2.52l14.91-25.82c.9-1.55,2.57-2.52,4.36-2.52h29.81c1.79,0,3.46.96,4.36,2.52l14.91,25.82c.44.76.67,1.63.67,2.52s-.23,1.75-.67,2.52l-14.91,25.82c-.9,1.55-2.57,2.52-4.36,2.52h-29.81Z"/>
            </g>
            <g class="cls-9">
              <path class="cls-2" d="M298.47,505.09h-29.81c-2.16,0-4.15,1.15-5.22,3.02l-14.9,25.82c-1.08,1.87-1.08,4.17,0,6.03l14.9,25.82c1.08,1.87,3.07,3.02,5.22,3.02h29.81c2.16,0,4.15-1.15,5.22-3.02l14.9-25.82c1.08-1.87,1.08-4.17,0-6.03l-14.9-25.82c-1.08-1.87-3.07-3.02-5.22-3.02Z"/>
              <path class="cls-14" d="M303.7,565.77l14.9-25.82c1.08-1.87,1.08-4.17,0-6.03l-14.9-25.82c-1.08-1.87-3.07-3.02-5.22-3.02h-29.81c-2.16,0-4.15,1.15-5.22,3.02l-14.9,25.82c-1.08,1.87-1.08,4.17,0,6.03l14.9,25.82c1.08,1.87,3.07,3.02,5.22,3.02h29.81c2.16,0,4.15-1.15,5.22-3.02ZM268.66,567.78c-1.79,0-3.46-.96-4.36-2.52l-14.91-25.82c-.44-.76-.67-1.63-.67-2.52s.23-1.75.67-2.52l14.91-25.82c.9-1.55,2.57-2.52,4.36-2.52h29.81c1.79,0,3.46.96,4.36,2.52l14.91,25.82c.44.76.67,1.63.67,2.52s-.23,1.75-.67,2.52l-14.91,25.82c-.9,1.55-2.57,2.52-4.36,2.52h-29.81Z"/>
            </g>
            <g class="cls-6">
              <path class="cls-2" d="M12.15,114.46h-29.81c-2.16,0-4.15,1.15-5.22,3.02l-14.9,25.82c-1.08,1.87-1.08,4.17,0,6.03l14.9,25.82c1.08,1.87,3.07,3.02,5.22,3.02H12.15c2.16,0,4.15-1.15,5.22-3.02l14.9-25.82c1.08-1.87,1.08-4.17,0-6.03l-14.9-25.82c-1.08-1.87-3.07-3.02-5.22-3.02Z"/>
              <path class="cls-14" d="M17.38,175.14l14.9-25.82c1.08-1.87,1.08-4.17,0-6.03l-14.9-25.82c-1.08-1.87-3.07-3.02-5.22-3.02h-29.81c-2.16,0-4.15,1.15-5.22,3.02l-14.9,25.82c-1.08,1.87-1.08,4.17,0,6.03l14.9,25.82c1.08,1.87,3.07,3.02,5.22,3.02H12.15c2.16,0,4.15-1.15,5.22-3.02ZM-17.66,177.16c-1.79,0-3.46-.96-4.36-2.52l-14.91-25.82c-.44-.76-.67-1.63-.67-2.52s.23-1.75.67-2.52l14.91-25.82c.9-1.55,2.57-2.52,4.36-2.52H12.15c1.79,0,3.46.96,4.36,2.52l14.91,25.82c.44.76.67,1.63.67,2.52s-.23,1.75-.67,2.52l-14.91,25.82c-.9,1.55-2.57,2.52-4.36,2.52h-29.81Z"/>
            </g>
            <g class="cls-35">
              <path class="cls-2" d="M58.3,177.45h-21.07c-1.52,0-2.93.81-3.69,2.13l-10.53,18.25c-.76,1.32-.76,2.94,0,4.26l10.53,18.25c.76,1.32,2.17,2.13,3.69,2.13h21.07c1.52,0,2.93-.81,3.69-2.13l10.53-18.25c.76-1.32.76-2.94,0-4.26l-10.53-18.25c-.76-1.32-2.17-2.13-3.69-2.13Z"/>
              <path class="cls-14" d="M61.99,220.34l10.53-18.25c.76-1.32.76-2.94,0-4.26l-10.53-18.25c-.76-1.32-2.17-2.13-3.69-2.13h-21.07c-1.52,0-2.93.81-3.69,2.13l-10.53,18.25c-.76,1.32-.76,2.94,0,4.26l10.53,18.25c.76,1.32,2.17,2.13,3.69,2.13h21.07c1.52,0,2.93-.81,3.69-2.13ZM37.23,221.77c-1.27,0-2.45-.68-3.08-1.78l-10.53-18.25c-.31-.54-.48-1.16-.48-1.78s.16-1.24.48-1.78l10.53-18.25c.63-1.1,1.81-1.78,3.08-1.78h21.07c1.27,0,2.45.68,3.08,1.78l10.53,18.25c.31.54.48,1.15.48,1.78s-.16,1.24-.48,1.78l-10.53,18.25c-.63,1.1-1.81,1.78-3.08,1.78h-21.07Z"/>
            </g>
            <g class="cls-34">
              <path class="cls-2" d="M199.46,264.31h-12.7c-.92,0-1.77.49-2.23,1.29l-6.35,11c-.46.8-.46,1.78,0,2.57l6.35,11c.46.8,1.31,1.29,2.23,1.29h12.7c.92,0,1.77-.49,2.23-1.29l6.35-11c.46-.8.46-1.78,0-2.57l-6.35-11c-.46-.8-1.31-1.29-2.23-1.29Z"/>
              <path class="cls-14" d="M201.68,290.17l6.35-11c.46-.8.46-1.78,0-2.57l-6.35-11c-.46-.8-1.31-1.29-2.23-1.29h-12.7c-.92,0-1.77.49-2.23,1.29l-6.35,11c-.46.8-.46,1.78,0,2.57l6.35,11c.46.8,1.31,1.29,2.23,1.29h12.7c.92,0,1.77-.49,2.23-1.29ZM186.75,291.03c-.76,0-1.48-.41-1.86-1.07l-6.35-11c-.19-.33-.29-.7-.29-1.07s.1-.75.29-1.07l6.35-11c.38-.66,1.09-1.07,1.86-1.07h12.7c.76,0,1.48.41,1.86,1.07l6.35,11c.19.33.29.7.29,1.07s-.1.75-.29,1.07l-6.35,11c-.38.66-1.09,1.07-1.86,1.07h-12.7Z"/>
            </g>
            <g class="cls-33">
              <path class="cls-2" d="M12.7,13.21H0c-.92,0-1.77.49-2.23,1.29l-6.35,11c-.46.8-.46,1.78,0,2.57l6.35,11c.46.8,1.31,1.29,2.23,1.29h12.7c.92,0,1.77-.49,2.23-1.29l6.35-11c.46-.8.46-1.78,0-2.57l-6.35-11c-.46-.8-1.31-1.29-2.23-1.29Z"/>
              <path class="cls-14" d="M14.93,39.07l6.35-11c.46-.8.46-1.78,0-2.57l-6.35-11c-.46-.8-1.31-1.29-2.23-1.29H0c-.92,0-1.77.49-2.23,1.29l-6.35,11c-.46.8-.46,1.78,0,2.57l6.35,11c.46.8,1.31,1.29,2.23,1.29h12.7c.92,0,1.77-.49,2.23-1.29ZM0,39.93c-.76,0-1.48-.41-1.86-1.07l-6.35-11c-.19-.33-.29-.7-.29-1.07s.1-.75.29-1.07L-1.86,14.71c.38-.66,1.09-1.07,1.86-1.07h12.7c.76,0,1.48.41,1.86,1.07l6.35,11c.19.33.29.7.29,1.07s-.1.75-.29,1.07l-6.35,11c-.38.66-1.09,1.07-1.86,1.07H0Z"/>
            </g>
            <g class="cls-27">
              <path class="cls-2" d="M46.86,397.37h-12.7c-.92,0-1.77.49-2.23,1.29l-6.35,11c-.46.8-.46,1.78,0,2.57l6.35,11c.46.8,1.31,1.29,2.23,1.29h12.7c.92,0,1.77-.49,2.23-1.29l6.35-11c.46-.8.46-1.78,0-2.57l-6.35-11c-.46-.8-1.31-1.29-2.23-1.29Z"/>
              <path class="cls-14" d="M49.09,423.23l6.35-11c.46-.8.46-1.78,0-2.57l-6.35-11c-.46-.8-1.31-1.29-2.23-1.29h-12.7c-.92,0-1.77.49-2.23,1.29l-6.35,11c-.46.8-.46,1.78,0,2.57l6.35,11c.46.8,1.31,1.29,2.23,1.29h12.7c.92,0,1.77-.49,2.23-1.29ZM34.16,424.09c-.76,0-1.48-.41-1.86-1.07l-6.35-11c-.19-.33-.29-.7-.29-1.07s.1-.75.29-1.07l6.35-11c.38-.66,1.09-1.07,1.86-1.07h12.7c.76,0,1.48.41,1.86,1.07l6.35,11c.19.33.29.7.29,1.07s-.1.75-.29,1.07l-6.35,11c-.38.66-1.09,1.07-1.86,1.07h-12.7Z"/>
            </g>
          </g>
        </g>
      </g>
      <g class="cls-39">
        <g class="cls-38">
          <g>
            <g class="cls-30">
              <path class="cls-16" d="M371.18,44.13c0-6.85,1.76-13.7,5.29-19.81l73.17-126.74c7.06-12.22,20.2-19.81,34.31-19.81h146.34c14.11,0,27.26,7.59,34.31,19.81l73.17,126.74c7.05,12.22,7.05,27.4,0,39.62l-73.17,126.74c-7.05,12.22-20.2,19.81-34.31,19.81h-146.34c-14.11,0-27.25-7.59-34.31-19.81l-73.17-126.74c-3.53-6.11-5.29-12.96-5.29-19.81ZM723.07,44.13c0-3.39-.87-6.78-2.62-9.81l-73.17-126.74c-3.49-6.05-10-9.81-16.99-9.81h-146.34c-6.99,0-13.5,3.76-16.99,9.81l-73.17,126.74c-3.49,6.05-3.49,13.57,0,19.62l73.17,126.74c3.49,6.05,10,9.81,16.99,9.81h146.34c6.99,0,13.5-3.76,16.99-9.81l73.17-126.74c1.75-3.03,2.62-6.42,2.62-9.81Z"/>
              <g class="cls-15">
                <path class="cls-17" d="M664.6,190.68l73.17-126.74c7.05-12.22,7.05-27.4,0-39.62l-73.17-126.74c-7.05-12.22-20.2-19.81-34.31-19.81h-146.34c-14.11,0-27.25,7.59-34.31,19.81l-73.17,126.74c-3.53,6.11-5.29,12.96-5.29,19.81s1.76,13.7,5.29,19.81l73.17,126.74c7.06,12.22,20.2,19.81,34.31,19.81h146.34c14.11,0,27.26-7.59,34.31-19.81ZM483.95,209.49c-13.75,0-26.57-7.4-33.44-19.31l-73.17-126.74c-3.37-5.84-5.16-12.52-5.16-19.31s1.78-13.46,5.16-19.31l73.17-126.74c6.88-11.91,19.69-19.31,33.44-19.31h146.34c13.75,0,26.57,7.4,33.44,19.31l73.17,126.74c3.37,5.84,5.16,12.52,5.16,19.31s-1.78,13.47-5.16,19.31l-73.17,126.74c-6.88,11.91-19.69,19.31-33.44,19.31h-146.34Z"/>
                <path class="cls-17" d="M648.14,181.18l73.17-126.74c1.8-3.12,2.75-6.69,2.75-10.31s-.95-7.19-2.75-10.31l-73.17-126.74c-3.67-6.36-10.51-10.31-17.86-10.31h-146.34c-7.34,0-14.18,3.95-17.86,10.31l-73.17,126.74c-1.8,3.12-2.75,6.69-2.75,10.31s.95,7.19,2.75,10.31l73.17,126.74c3.67,6.36,10.51,10.31,17.86,10.31h146.34c7.34,0,14.18-3.95,17.86-10.31ZM483.95,190.49c-6.99,0-13.5-3.76-16.99-9.81l-73.17-126.74c-3.49-6.05-3.49-13.57,0-19.62l73.17-126.74c3.49-6.05,10-9.81,16.99-9.81h146.34c6.99,0,13.5,3.76,16.99,9.81l73.17,126.74c1.75,3.02,2.62,6.42,2.62,9.81s-.87,6.78-2.62,9.81l-73.17,126.74c-3.49,6.05-10,9.81-16.99,9.81h-146.34Z"/>
              </g>
            </g>
            <g class="cls-36">
              <path class="cls-16" d="M294.95-140.76h-99.65c-7.2,0-13.86,3.84-17.46,10.08l-49.82,86.3c-3.6,6.24-3.6,13.93,0,20.17l49.82,86.3c3.6,6.24,10.26,10.08,17.46,10.08h99.65c7.2,0,13.86-3.84,17.46-10.08l49.82-86.3c3.6-6.24,3.6-13.93,0-20.17l-49.82-86.3c-3.6-6.24-10.26-10.08-17.46-10.08Z"/>
              <path class="cls-14" d="M312.41,62.08l49.82-86.3c3.6-6.24,3.6-13.93,0-20.17l-49.82-86.3c-3.6-6.24-10.26-10.08-17.46-10.08h-99.65c-7.2,0-13.86,3.84-17.46,10.08l-49.82,86.3c-3.6,6.24-3.6,13.93,0,20.17l49.82,86.3c3.6,6.24,10.26,10.08,17.46,10.08h99.65c7.2,0,13.86-3.84,17.46-10.08ZM195.3,71.17c-6.83,0-13.19-3.67-16.6-9.58l-49.82-86.29c-1.68-2.91-2.57-6.22-2.57-9.58s.89-6.67,2.57-9.58l49.82-86.3c3.41-5.91,9.77-9.58,16.6-9.58h99.64c6.83,0,13.19,3.67,16.6,9.58l49.82,86.3c1.68,2.91,2.57,6.22,2.57,9.58s-.89,6.67-2.57,9.58l-49.82,86.29c-3.41,5.91-9.77,9.58-16.6,9.58h-99.64Z"/>
            </g>
            <g class="cls-28">
              <path class="cls-2" d="M352.63-90.98h-57.58c-4.16,0-8.01,2.22-10.09,5.83l-28.79,49.86c-2.08,3.61-2.08,8.05,0,11.65l28.79,49.86c2.08,3.61,5.93,5.83,10.09,5.83h57.58c4.16,0,8.01-2.22,10.09-5.83l28.79-49.86c2.08-3.61,2.08-8.05,0-11.65l-28.79-49.86c-2.08-3.61-5.93-5.83-10.09-5.83Z"/>
              <path class="cls-14" d="M362.72,26.23l28.79-49.86c2.08-3.61,2.08-8.05,0-11.65l-28.79-49.86c-2.08-3.61-5.93-5.83-10.09-5.83h-57.58c-4.16,0-8.01,2.22-10.09,5.83l-28.79,49.86c-2.08,3.61-2.08,8.05,0,11.65l28.79,49.86c2.08,3.61,5.93,5.83,10.09,5.83h57.58c4.16,0,8.01-2.22,10.09-5.83ZM295.05,31.06c-3.79,0-7.33-2.04-9.23-5.33l-28.79-49.86c-.93-1.62-1.43-3.46-1.43-5.33s.49-3.71,1.43-5.33l28.79-49.86c1.9-3.29,5.43-5.33,9.23-5.33h57.58c3.79,0,7.33,2.04,9.23,5.33l28.79,49.86c.93,1.62,1.43,3.46,1.43,5.33s-.49,3.71-1.43,5.33l-28.79,49.86c-1.9,3.29-5.43,5.33-9.23,5.33h-57.58Z"/>
            </g>
            <g class="cls-32">
              <path class="cls-16" d="M509.15,131.86h-57.58c-4.16,0-8.01,2.22-10.09,5.83l-28.79,49.86c-2.08,3.61-2.08,8.05,0,11.65l28.79,49.86c2.08,3.61,5.93,5.83,10.09,5.83h57.58c4.16,0,8.01-2.22,10.09-5.83l28.79-49.86c2.08-3.61,2.08-8.05,0-11.65l-28.79-49.86c-2.08-3.61-5.93-5.83-10.09-5.83Z"/>
              <path class="cls-14" d="M519.24,249.07l28.79-49.86c2.08-3.61,2.08-8.05,0-11.65l-28.79-49.86c-2.08-3.61-5.93-5.83-10.09-5.83h-57.58c-4.16,0-8.01,2.22-10.09,5.83l-28.79,49.86c-2.08,3.61-2.08,8.05,0,11.65l28.79,49.86c2.08,3.61,5.93,5.83,10.09,5.83h57.58c4.16,0,8.01-2.22,10.09-5.83ZM451.57,253.9c-3.79,0-7.33-2.04-9.23-5.33l-28.79-49.86c-.93-1.62-1.43-3.46-1.43-5.33s.49-3.71,1.43-5.33l28.79-49.86c1.9-3.29,5.43-5.33,9.23-5.33h57.58c3.79,0,7.33,2.04,9.23,5.33l28.79,49.86c.93,1.62,1.43,3.46,1.43,5.33s-.49,3.71-1.43,5.33l-28.79,49.86c-1.9,3.29-5.43,5.33-9.23,5.33h-57.58Z"/>
            </g>
            <g class="cls-31">
              <path class="cls-2" d="M516.72,103.12h-29.81c-2.16,0-4.15,1.15-5.22,3.02l-14.9,25.82c-1.08,1.87-1.08,4.17,0,6.03l14.9,25.82c1.08,1.87,3.07,3.02,5.22,3.02h29.81c2.16,0,4.15-1.15,5.22-3.02l14.9-25.82c1.08-1.87,1.08-4.17,0-6.03l-14.9-25.82c-1.08-1.87-3.07-3.02-5.22-3.02Z"/>
              <path class="cls-14" d="M521.94,163.8l14.9-25.82c1.08-1.87,1.08-4.17,0-6.03l-14.9-25.82c-1.08-1.87-3.07-3.02-5.22-3.02h-29.81c-2.16,0-4.15,1.15-5.22,3.02l-14.9,25.82c-1.08,1.87-1.08,4.17,0,6.03l14.9,25.82c1.08,1.87,3.07,3.02,5.22,3.02h29.81c2.16,0,4.15-1.15,5.22-3.02ZM486.91,165.81c-1.79,0-3.46-.96-4.36-2.52l-14.91-25.82c-.44-.76-.67-1.63-.67-2.52s.23-1.75.67-2.52l14.91-25.82c.9-1.55,2.57-2.52,4.36-2.52h29.81c1.79,0,3.46.96,4.36,2.52l14.91,25.82c.44.76.67,1.63.67,2.52s-.23,1.75-.67,2.52l-14.91,25.82c-.9,1.55-2.57,2.52-4.36,2.52h-29.81Z"/>
            </g>
            <g class="cls-29">
              <path class="cls-16" d="M283.26,101.87h-29.81c-2.16,0-4.15,1.15-5.22,3.02l-14.9,25.82c-1.08,1.87-1.08,4.17,0,6.03l14.9,25.82c1.08,1.87,3.07,3.02,5.22,3.02h29.81c2.16,0,4.15-1.15,5.22-3.02l14.9-25.82c1.08-1.87,1.08-4.17,0-6.03l-14.9-25.82c-1.08-1.87-3.07-3.02-5.22-3.02Z"/>
              <path class="cls-14" d="M288.48,162.55l14.9-25.82c1.08-1.87,1.08-4.17,0-6.03l-14.9-25.82c-1.08-1.87-3.07-3.02-5.22-3.02h-29.81c-2.16,0-4.15,1.15-5.22,3.02l-14.9,25.82c-1.08,1.87-1.08,4.17,0,6.03l14.9,25.82c1.08,1.87,3.07,3.02,5.22,3.02h29.81c2.16,0,4.15-1.15,5.22-3.02ZM253.45,164.57c-1.79,0-3.46-.96-4.36-2.52l-14.91-25.82c-.44-.76-.67-1.63-.67-2.52s.23-1.75.67-2.52l14.91-25.82c.9-1.55,2.57-2.52,4.36-2.52h29.81c1.79,0,3.46.96,4.36,2.52l14.91,25.82c.44.76.67,1.63.67,2.52s-.23,1.75-.67,2.52l-14.91,25.82c-.9,1.55-2.57,2.52-4.36,2.52h-29.81Z"/>
            </g>
            <g class="cls-20">
              <path class="cls-16" d="M359.78,82.35h-29.81c-2.16,0-4.15,1.15-5.22,3.02l-14.9,25.82c-1.08,1.87-1.08,4.17,0,6.03l14.9,25.82c1.08,1.87,3.07,3.02,5.22,3.02h29.81c2.16,0,4.15-1.15,5.22-3.02l14.9-25.82c1.08-1.87,1.08-4.17,0-6.03l-14.9-25.82c-1.08-1.87-3.07-3.02-5.22-3.02Z"/>
              <path class="cls-14" d="M365.01,143.03l14.9-25.82c1.08-1.87,1.08-4.17,0-6.03l-14.9-25.82c-1.08-1.87-3.07-3.02-5.22-3.02h-29.81c-2.16,0-4.15,1.15-5.22,3.02l-14.9,25.82c-1.08,1.87-1.08,4.17,0,6.03l14.9,25.82c1.08,1.87,3.07,3.02,5.22,3.02h29.81c2.16,0,4.15-1.15,5.22-3.02ZM329.97,145.05c-1.79,0-3.46-.96-4.36-2.52l-14.91-25.82c-.44-.76-.67-1.63-.67-2.52s.23-1.75.67-2.52l14.91-25.82c.9-1.55,2.57-2.52,4.36-2.52h29.81c1.79,0,3.46.96,4.36,2.52l14.91,25.82c.44.76.67,1.63.67,2.52s-.23,1.75-.67,2.52l-14.91,25.82c-.9,1.55-2.57,2.52-4.36,2.52h-29.81Z"/>
            </g>
            <g class="cls-21">
              <path class="cls-16" d="M492.68-22.16h-29.81c-2.16,0-4.15,1.15-5.22,3.02l-14.9,25.82c-1.08,1.87-1.08,4.17,0,6.03l14.9,25.82c1.08,1.87,3.07,3.02,5.22,3.02h29.81c2.16,0,4.15-1.15,5.22-3.02l14.9-25.82c1.08-1.87,1.08-4.17,0-6.03l-14.9-25.82c-1.08-1.87-3.07-3.02-5.22-3.02Z"/>
              <path class="cls-14" d="M497.91,38.52l14.9-25.82c1.08-1.87,1.08-4.17,0-6.03l-14.9-25.82c-1.08-1.87-3.07-3.02-5.22-3.02h-29.81c-2.16,0-4.15,1.15-5.22,3.02l-14.9,25.82c-1.08,1.87-1.08,4.17,0,6.03l14.9,25.82c1.08,1.87,3.07,3.02,5.22,3.02h29.81c2.16,0,4.15-1.15,5.22-3.02ZM462.87,40.54c-1.79,0-3.46-.96-4.36-2.52l-14.91-25.82c-.44-.76-.67-1.63-.67-2.52s.23-1.75.67-2.52l14.91-25.82c.9-1.55,2.57-2.52,4.36-2.52h29.81c1.79,0,3.46.96,4.36,2.52l14.91,25.82c.44.76.67,1.63.67,2.52s-.23,1.75-.67,2.52l-14.91,25.82c-.9,1.55-2.57,2.52-4.36,2.52h-29.81Z"/>
            </g>
            <g class="cls-19">
              <path class="cls-2" d="M532.04,316.47h-29.81c-2.16,0-4.15,1.15-5.22,3.02l-14.9,25.82c-1.08,1.87-1.08,4.17,0,6.03l14.9,25.82c1.08,1.87,3.07,3.02,5.22,3.02h29.81c2.16,0,4.15-1.15,5.22-3.02l14.9-25.82c1.08-1.87,1.08-4.17,0-6.03l-14.9-25.82c-1.08-1.87-3.07-3.02-5.22-3.02Z"/>
              <path class="cls-14" d="M537.27,377.15l14.9-25.82c1.08-1.87,1.08-4.17,0-6.03l-14.9-25.82c-1.08-1.87-3.07-3.02-5.22-3.02h-29.81c-2.16,0-4.15,1.15-5.22,3.02l-14.9,25.82c-1.08,1.87-1.08,4.17,0,6.03l14.9,25.82c1.08,1.87,3.07,3.02,5.22,3.02h29.81c2.16,0,4.15-1.15,5.22-3.02ZM502.23,379.17c-1.79,0-3.46-.96-4.36-2.52l-14.91-25.82c-.44-.76-.67-1.63-.67-2.52s.23-1.75.67-2.52l14.91-25.82c.9-1.55,2.57-2.52,4.36-2.52h29.81c1.79,0,3.46.96,4.36,2.52l14.91,25.82c.44.76.67,1.63.67,2.52s-.23,1.75-.67,2.52l-14.91,25.82c-.9,1.55-2.57,2.52-4.36,2.52h-29.81Z"/>
            </g>
            <g class="cls-26">
              <path class="cls-2" d="M140.03-21.16h-21.07c-1.52,0-2.93.81-3.69,2.13L104.73-.78c-.76,1.32-.76,2.94,0,4.26l10.53,18.25c.76,1.32,2.17,2.13,3.69,2.13h21.07c1.52,0,2.93-.81,3.69-2.13l10.53-18.25c.76-1.32.76-2.94,0-4.26l-10.53-18.25c-.76-1.32-2.17-2.13-3.69-2.13Z"/>
              <path class="cls-14" d="M143.72,21.73l10.53-18.25c.76-1.32.76-2.94,0-4.26l-10.53-18.25c-.76-1.32-2.17-2.13-3.69-2.13h-21.07c-1.52,0-2.93.81-3.69,2.13L104.73-.78c-.76,1.32-.76,2.94,0,4.26l10.53,18.25c.76,1.32,2.17,2.13,3.69,2.13h21.07c1.52,0,2.93-.81,3.69-2.13ZM118.96,23.15c-1.27,0-2.45-.68-3.08-1.78l-10.53-18.25c-.31-.54-.48-1.16-.48-1.78s.16-1.24.48-1.78l10.53-18.25c.63-1.1,1.81-1.78,3.08-1.78h21.07c1.27,0,2.45.68,3.08,1.78L153.64-.43c.31.54.48,1.15.48,1.78s-.16,1.24-.48,1.78l-10.53,18.25c-.63,1.1-1.81,1.78-3.08,1.78h-21.07Z"/>
            </g>
            <g class="cls-25">
              <path class="cls-2" d="M252.08,24.31h-12.7c-.92,0-1.77.49-2.23,1.29l-6.35,11c-.46.8-.46,1.78,0,2.57l6.35,11c.46.8,1.31,1.29,2.23,1.29h12.7c.92,0,1.77-.49,2.23-1.29l6.35-11c.46-.8.46-1.78,0-2.57l-6.35-11c-.46-.8-1.31-1.29-2.23-1.29Z"/>
              <path class="cls-14" d="M254.31,50.17l6.35-11c.46-.8.46-1.78,0-2.57l-6.35-11c-.46-.8-1.31-1.29-2.23-1.29h-12.7c-.92,0-1.77.49-2.23,1.29l-6.35,11c-.46.8-.46,1.78,0,2.57l6.35,11c.46.8,1.31,1.29,2.23,1.29h12.7c.92,0,1.77-.49,2.23-1.29ZM239.38,51.03c-.76,0-1.48-.41-1.86-1.07l-6.35-11c-.19-.33-.29-.7-.29-1.07s.1-.75.29-1.07l6.35-11c.38-.66,1.09-1.07,1.86-1.07h12.7c.76,0,1.48.41,1.86,1.07l6.35,11c.19.33.29.7.29,1.07s-.1.75-.29,1.07l-6.35,11c-.38.66-1.09,1.07-1.86,1.07h-12.7Z"/>
            </g>
            <g class="cls-24">
              <path class="cls-2" d="M482.26,375h-12.7c-.92,0-1.77.49-2.23,1.29l-6.35,11c-.46.8-.46,1.78,0,2.57l6.35,11c.46.8,1.31,1.29,2.23,1.29h12.7c.92,0,1.77-.49,2.23-1.29l6.35-11c.46-.8.46-1.78,0-2.57l-6.35-11c-.46-.8-1.31-1.29-2.23-1.29Z"/>
              <path class="cls-14" d="M484.48,400.86l6.35-11c.46-.8.46-1.78,0-2.57l-6.35-11c-.46-.8-1.31-1.29-2.23-1.29h-12.7c-.92,0-1.77.49-2.23,1.29l-6.35,11c-.46.8-.46,1.78,0,2.57l6.35,11c.46.8,1.31,1.29,2.23,1.29h12.7c.92,0,1.77-.49,2.23-1.29ZM469.55,401.72c-.76,0-1.48-.41-1.86-1.07l-6.35-11c-.19-.33-.29-.7-.29-1.07s.1-.75.29-1.07l6.35-11c.38-.66,1.09-1.07,1.86-1.07h12.7c.76,0,1.48.41,1.86,1.07l6.35,11c.19.33.29.7.29,1.07s-.1.75-.29,1.07l-6.35,11c-.38.66-1.09,1.07-1.86,1.07h-12.7Z"/>
            </g>
            <g class="cls-23">
              <path class="cls-2" d="M440.35,214.29h-12.7c-.92,0-1.77.49-2.23,1.29l-6.35,11c-.46.8-.46,1.78,0,2.57l6.35,11c.46.8,1.31,1.29,2.23,1.29h12.7c.92,0,1.77-.49,2.23-1.29l6.35-11c.46-.8.46-1.78,0-2.57l-6.35-11c-.46-.8-1.31-1.29-2.23-1.29Z"/>
              <path class="cls-14" d="M442.58,240.15l6.35-11c.46-.8.46-1.78,0-2.57l-6.35-11c-.46-.8-1.31-1.29-2.23-1.29h-12.7c-.92,0-1.77.49-2.23,1.29l-6.35,11c-.46.8-.46,1.78,0,2.57l6.35,11c.46.8,1.31,1.29,2.23,1.29h12.7c.92,0,1.77-.49,2.23-1.29ZM427.65,241.01c-.76,0-1.48-.41-1.86-1.07l-6.35-11c-.19-.33-.29-.7-.29-1.07s.1-.75.29-1.07l6.35-11c.38-.66,1.09-1.07,1.86-1.07h12.7c.76,0,1.48.41,1.86,1.07l6.35,11c.19.33.29.7.29,1.07s-.1.75-.29,1.07l-6.35,11c-.38.66-1.09,1.07-1.86,1.07h-12.7Z"/>
            </g>
            <g class="cls-22">
              <path class="cls-2" d="M149.42,50.38h-12.7c-.92,0-1.77.49-2.23,1.29l-6.35,11c-.46.8-.46,1.78,0,2.57l6.35,11c.46.8,1.31,1.29,2.23,1.29h12.7c.92,0,1.77-.49,2.23-1.29l6.35-11c.46-.8.46-1.78,0-2.57l-6.35-11c-.46-.8-1.31-1.29-2.23-1.29Z"/>
              <path class="cls-14" d="M151.65,76.24l6.35-11c.46-.8.46-1.78,0-2.57l-6.35-11c-.46-.8-1.31-1.29-2.23-1.29h-12.7c-.92,0-1.77.49-2.23,1.29l-6.35,11c-.46.8-.46,1.78,0,2.57l6.35,11c.46.8,1.31,1.29,2.23,1.29h12.7c.92,0,1.77-.49,2.23-1.29ZM136.72,77.1c-.76,0-1.48-.41-1.86-1.07l-6.35-11c-.19-.33-.29-.7-.29-1.07s.1-.75.29-1.07l6.35-11c.38-.66,1.09-1.07,1.86-1.07h12.7c.76,0,1.48.41,1.86,1.07l6.35,11c.19.33.29.7.29,1.07s-.1.75-.29,1.07l-6.35,11c-.38.66-1.09,1.07-1.86,1.07h-12.7Z"/>
            </g>
          </g>
        </g>
      </g>
    </g>
  </g>
</svg>