<?xml version="1.0" encoding="UTF-8"?>
<svg id="Layer_1" xmlns="http://www.w3.org/2000/svg" version="1.1" viewBox="0 0 575 289.8">
  <!-- Generator: Adobe Illustrator 29.7.1, SVG Export Plug-In . SVG Version: 2.1.1 Build 8)  -->
  <defs>
    <style>
      .st0 {
        fill-opacity: 0;
        stroke: #000;
        stroke-opacity: 0;
      }
    </style>
  </defs>
  <g>
    <path id="g5jjnq26yS" d="M69.3,58.2h45.6v175.6h-45.6V58.2Z"/>
    <path id="g5jjnq26yS1" data-name="g5jjnq26yS" class="st0" d="M69.3,58.2h45.6v175.6h-45.6V58.2Z"/>
  </g>
  <g>
    <path id="i3Prh1JpXt" d="M201.2,139.1c-3.9-26.8-6.1-41.6-6.5-44.6-1.9-14.3-3.7-26.8-5.5-37.4h-59.2v175.7h40v-116c.1,0,17,116,17,116h28.5l15.9-118.6v118.6h40V57.1h-59.6l-10.6,82.1Z"/>
    <path id="i3Prh1JpXt1" data-name="i3Prh1JpXt" class="st0" d="M201.2,139.1c-3.9-26.8-6.1-41.6-6.5-44.6-1.9-14.3-3.7-26.8-5.5-37.4h-59.2v175.7h40v-116c.1,0,17,116,17,116h28.5l15.9-118.6v118.6h40V57.1h-59.6l-10.6,82.1Z"/>
  </g>
  <g>
    <path id="a4ov9rRGQm" d="M346.7,93.6c.5,2.2.8,7.3.8,15.3v68.1c0,11.7-.8,18.8-2.3,21.5-1.5,2.6-5.6,3.9-12.1,3.9v-115.3c5,0,8.4.5,10.2,1.6,1.8,1.1,3,2.7,3.5,4.9ZM367.3,230.9c5.4-1.2,10-3.3,13.7-6.3,3.7-3,6.3-7.1,7.8-12.5,1.5-5.3,2.4-15.8,2.4-31.6v-61.7c0-16.6-.7-27.8-1.7-33.4-1-5.7-3.6-10.8-7.6-15.4-4.1-4.6-10-7.9-17.8-10-7.8-2-20.5-3-42.6-3h-34v175.7h55.3c12.7-.4,20.9-1,24.5-1.8Z"/>
    <path id="a4ov9rRGQm1" data-name="a4ov9rRGQm" class="st0" d="M346.7,93.6c.5,2.2.8,7.3.8,15.3v68.1c0,11.7-.8,18.8-2.3,21.5-1.5,2.6-5.6,3.9-12.1,3.9v-115.3c5,0,8.4.5,10.2,1.6,1.8,1.1,3,2.7,3.5,4.9ZM367.3,230.9c5.4-1.2,10-3.3,13.7-6.3,3.7-3,6.3-7.1,7.8-12.5,1.5-5.3,2.4-15.8,2.4-31.6v-61.7c0-16.6-.7-27.8-1.7-33.4-1-5.7-3.6-10.8-7.6-15.4-4.1-4.6-10-7.9-17.8-10-7.8-2-20.5-3-42.6-3h-34v175.7h55.3c12.7-.4,20.9-1,24.5-1.8Z"/>
  </g>
  <g>
    <path id="fk968BpsX" d="M464.8,204.7c-.8,2.2-4.5,3.4-7.3,3.4s-4.5-1.1-5.4-3.2c-.9-2.2-1.4-7.1-1.4-14.8v-46.4c0-8,.4-13,1.2-15,.8-2,2.6-3,5.3-3s6.5,1.1,7.5,3.4c.9,2.3,1.4,7.1,1.4,14.6v45c-.3,9.2-.7,14.6-1.3,16.1ZM406.7,231.2h41.1c1.7-6.7,2.6-10.4,2.8-11.2,3.7,4.5,7.8,7.9,12.3,10.1,4.5,2.2,11.2,3.4,16.3,3.4s13.4-1.9,18.7-5.7c5.2-3.8,8.6-8.3,10-13.4,1.4-5.2,2.1-13,2.1-23.5v-49.3c0-10.6-.2-17.5-.7-20.8s-1.9-6.6-4.2-10c-2.3-3.4-5.7-6-10.2-7.9-4.4-1.9-9.7-2.8-15.7-2.8s-12,1-16.5,3.1c-4.5,2.1-8.5,5.2-12.2,9.4v-57.1h-44v175.7Z"/>
    <path id="fk968BpsX1" data-name="fk968BpsX" class="st0" d="M464.8,204.7c-.8,2.2-4.5,3.4-7.3,3.4s-4.5-1.1-5.4-3.2c-.9-2.2-1.4-7.1-1.4-14.8v-46.4c0-8,.4-13,1.2-15,.8-2,2.6-3,5.3-3s6.5,1.1,7.5,3.4c.9,2.3,1.4,7.1,1.4,14.6v45c-.3,9.2-.7,14.6-1.3,16.1ZM406.7,231.2h41.1c1.7-6.7,2.6-10.4,2.8-11.2,3.7,4.5,7.8,7.9,12.3,10.1,4.5,2.2,11.2,3.4,16.3,3.4s13.4-1.9,18.7-5.7c5.2-3.8,8.6-8.3,10-13.4,1.4-5.2,2.1-13,2.1-23.5v-49.3c0-10.6-.2-17.5-.7-20.8s-1.9-6.6-4.2-10c-2.3-3.4-5.7-6-10.2-7.9-4.4-1.9-9.7-2.8-15.7-2.8s-12,1-16.5,3.1c-4.5,2.1-8.5,5.2-12.2,9.4v-57.1h-44v175.7Z"/>
  </g>
</svg>